<svg version="1.1" viewBox="0 0 640 400" xmlns="http://www.w3.org/2000/svg" xmlns:xlink="http://www.w3.org/1999/xlink" xmlns:svgjs="http://svgjs.dev/svgjs" matcher="0.9881927357671014">
  <g viewBox="0 0 640 400" matcher="0.9881927357671014">
    <g matcher="0.9881927357671014">
      <g matcher="0.9881927357671014">
        <g matcher="0.9881927357671014">
          <svg viewBox="0 0 640 400" data-background-color="transparent" preserveAspectRatio="xMidYMid meet" height="400" width="640" xmlns="http://www.w3.org/2000/svg" xmlns:xlink="http://www.w3.org/1999/xlink">
            <rect width="640" height="400" x="0" y="0" opacity="1" fill="transparent" data-fill-palette-color="background" id="background"></rect>
            <g id="tight-bounds" transform="matrix(1,0,0,1,122.24000000000001,98.90999534094762)">
              <svg viewBox="0 0 395.52 202.18000931810477" height="202.18000931810477" width="395.52">
                <g>
                  <svg viewBox="0 0 583.1322483653337 298.0827351542035" height="202.18000931810477" width="395.52">
                    <g transform="matrix(1,0,0,1,187.61224836533364,95.11902040738332)">
                      <svg viewBox="0 0 395.52 107.84469433943684" height="107.84469433943684" width="395.52">
                        <g id="textblocktransform">
                          <svg viewBox="0 0 395.52 107.84469433943684" height="107.84469433943684" width="395.52" id="textblock">
                            <g>
                              <svg viewBox="0 0 395.52 62.13547618825577" height="62.13547618825577" width="395.52">
                                <g transform="matrix(1,0,0,1,0,0)">
                                  <svg width="395.52" viewBox="2.45652174949646 -34.400001525878906 221.49847412109375 34.80000305175781" height="62.13547618825577" data-palette-color="#bf2051">
                                    <path d="M20.65-30.15L20.65-30.15 20.75-30.95Q18.95-31.1 16.57-31.18 14.2-31.25 11.88-31.3 9.55-31.35 7.8-31.3L7.8-31.3Q7.6-31.3 7.5-31.18 7.4-31.05 7.4-30.9L7.4-30.9 7.4-3.1Q7.4-2.95 7.5-2.83 7.6-2.7 7.8-2.7L7.8-2.7Q9.6-2.65 11.9-2.68 14.2-2.7 16.53-2.8 18.85-2.9 20.65-3.05L20.65-3.05 20.55-3.85Q18.8-3.7 16.5-3.6 14.2-3.5 11.9-3.48 9.6-3.45 7.8-3.5L7.8-3.5Q7.65-3.5 7.93-3.23 8.2-2.95 8.2-3.1L8.2-3.1 8.2-30.9Q8.2-31.05 7.93-30.78 7.65-30.5 7.8-30.5L7.8-30.5Q9.55-30.55 11.88-30.5 14.2-30.45 16.55-30.38 18.9-30.3 20.65-30.15ZM7.8-17.1L19.35-17.1 19.35-17.9 7.8-17.9 7.8-17.1ZM8.05-2.8L11.8-5.95 11.3-6.55 7.55-3.4Q7.55-3.4 7.58-3.43 7.6-3.45 7.6-3.45L7.6-3.45 2.65-0.35 3.05 0.35 8-2.75Q8.05-2.75 8.05-2.78 8.05-2.8 8.05-2.8L8.05-2.8ZM8-31.25L3.05-34.35 2.65-33.65 7.6-30.55Q7.6-30.55 7.58-30.58 7.55-30.6 7.55-30.6L7.55-30.6 11.3-27.45 11.8-28.05 8.05-31.2Q8.05-31.2 8.05-31.23 8.05-31.25 8-31.25L8-31.25ZM21-30.3L24.1-33.75 23.5-34.25 20.4-30.8Q20.35-30.75 20.33-30.58 20.3-30.4 20.35-30.3L20.35-30.3 23.45-25.95 24.15-26.45 21.05-30.8Q20.95-30.9 20.93-30.55 20.9-30.2 21-30.3L21-30.3ZM20.9-3.2L25-8.05 24.4-8.55 20.3-3.7Q20.2-3.6 20.2-3.45 20.2-3.3 20.3-3.2L20.3-3.2 23.4 0.25 24-0.25 20.9-3.7Q20.8-3.8 20.83-3.45 20.85-3.1 20.9-3.2L20.9-3.2ZM19.65-17.25L22.75-21.35 22.15-21.85 19.05-17.75Q18.95-17.65 18.95-17.5 18.95-17.35 19.05-17.25L19.05-17.25 22.15-13.2 22.75-13.7 19.65-17.75Q19.6-17.85 19.6-17.5 19.6-17.15 19.65-17.25L19.65-17.25ZM8.05-17.2L11.6-20.2 11.1-20.8 7.55-17.8Q7.4-17.7 7.4-17.5 7.4-17.3 7.55-17.2L7.55-17.2 11.1-14.2 11.6-14.8 8.05-17.8Q7.9-17.9 7.9-17.5 7.9-17.1 8.05-17.2L8.05-17.2ZM2.85 0.4L2.85 0.4 23.7 0.4Q23.85 0.4 23.95 0.3 24.05 0.2 24.1 0.05L24.1 0.05 25.1-8.25Q25.15-8.5 24.93-8.65 24.7-8.8 24.45-8.6L24.45-8.6Q23.6-7.9 22.25-7.45 20.9-7 18.4-6.8 15.9-6.6 11.55-6.65L11.55-6.65 11.95-6.25Q11.9-7.75 11.85-9.78 11.8-11.8 11.75-14.5L11.75-14.5 11.35-14.1Q15.3-14.1 17.38-14 19.45-13.9 20.5-13.7 21.55-13.5 22.25-13.1L22.25-13.1Q22.5-13 22.68-13.13 22.85-13.25 22.85-13.45L22.85-13.45 22.85-21.6Q22.85-21.85 22.68-21.95 22.5-22.05 22.25-21.95L22.25-21.95Q21.55-21.55 20.5-21.33 19.45-21.1 17.35-21.03 15.25-20.95 11.35-20.9L11.35-20.9 11.75-20.5Q11.8-22.85 11.85-24.63 11.9-26.4 11.95-27.75L11.95-27.75 11.55-27.35Q15.8-27.45 18.13-27.23 20.45-27 21.63-26.65 22.8-26.3 23.6-25.85L23.6-25.85Q23.85-25.75 24.03-25.88 24.2-26 24.2-26.2L24.2-26.2 24.2-34Q24.2-34.15 24.08-34.27 23.95-34.4 23.8-34.4L23.8-34.4 2.85-34.4Q2.65-34.4 2.53-34.23 2.4-34.05 2.5-33.8L2.5-33.8Q2.9-33.1 3.15-32.1 3.4-31.1 3.53-29.35 3.65-27.6 3.73-24.75 3.8-21.9 3.8-17.45L3.8-17.45Q3.8-12.75 3.73-9.73 3.65-6.7 3.53-4.85 3.4-3 3.15-1.98 2.9-0.95 2.5-0.2L2.5-0.2Q2.4 0 2.53 0.2 2.65 0.4 2.85 0.4ZM23.7-0.4L2.85-0.4 3.2 0.2Q3.6-0.55 3.85-1.63 4.1-2.7 4.28-4.58 4.45-6.45 4.53-9.55 4.6-12.65 4.6-17.45L4.6-17.45Q4.6-22 4.53-24.93 4.45-27.85 4.28-29.63 4.1-31.4 3.85-32.43 3.6-33.45 3.2-34.2L3.2-34.2 2.85-33.6 23.8-33.6 23.4-34 23.4-26.2 24-26.55Q23.15-27 21.93-27.38 20.7-27.75 18.3-28 15.9-28.25 11.55-28.15L11.55-28.15Q11.4-28.15 11.28-28.05 11.15-27.95 11.15-27.75L11.15-27.75Q11.1-26.4 11.05-24.63 11-22.85 10.95-20.5L10.95-20.5Q10.95-20.35 11.08-20.23 11.2-20.1 11.35-20.1L11.35-20.1Q14.45-20.1 16.38-20.18 18.3-20.25 19.48-20.4 20.65-20.55 21.35-20.75 22.05-20.95 22.65-21.25L22.65-21.25 22.05-21.6 22.05-13.45 22.65-13.8Q22.05-14.1 21.35-14.3 20.65-14.5 19.48-14.63 18.3-14.75 16.35-14.83 14.4-14.9 11.35-14.9L11.35-14.9Q11.2-14.9 11.08-14.78 10.95-14.65 10.95-14.5L10.95-14.5Q11-11.8 11.05-9.78 11.1-7.75 11.15-6.25L11.15-6.25Q11.15-6.05 11.28-5.95 11.4-5.85 11.55-5.85L11.55-5.85Q16.1-5.8 18.68-6.03 21.25-6.25 22.65-6.75 24.05-7.25 24.95-8L24.95-8 24.3-8.35 23.3-0.05 23.7-0.4ZM54.45-30.8L50.1-34.3 49.6-33.7 53.95-30.2Q54.05-30.15 54.17-30.13 54.3-30.1 54.4-30.15L54.4-30.15 60.25-33.65 59.85-34.35 54-30.85Q53.9-30.8 54.22-30.78 54.55-30.75 54.45-30.8L54.45-30.8ZM33.8-30.85L27.65-34.35 27.25-33.65 33.4-30.15Q33.5-30.1 33.62-30.13 33.75-30.15 33.85-30.2L33.85-30.2 38.5-33.7 38-34.3 33.35-30.8Q33.3-30.75 33.6-30.78 33.9-30.8 33.8-30.85L33.8-30.85ZM38.7-16.7L34-30.65 33.2-30.35 37.9-16.4Q37.9-16.4 37.9-16.4 37.9-16.4 37.9-16.4L37.9-16.4Q38.9-13.6 40-10.35 41.1-7.1 41.9-4.4L41.9-4.4Q41.95-4.25 42.05-4.17 42.15-4.1 42.3-4.1L42.3-4.1 45.5-4.1Q45.65-4.1 45.75-4.17 45.85-4.25 45.9-4.4L45.9-4.4Q46.7-7.1 47.8-10.35 48.9-13.6 49.9-16.4L49.9-16.4Q49.9-16.4 49.9-16.4 49.9-16.4 49.9-16.4L49.9-16.4 54.6-30.35 53.8-30.65 49.1-16.7Q49.1-16.7 49.1-16.7 49.1-16.7 49.1-16.7L49.1-16.7Q48.1-13.9 47-10.6 45.9-7.3 45.1-4.6L45.1-4.6Q45.05-4.5 45.35-4.7 45.65-4.9 45.5-4.9L45.5-4.9 42.3-4.9Q42.15-4.9 42.45-4.7 42.75-4.5 42.7-4.6L42.7-4.6Q41.9-7.3 40.8-10.6 39.7-13.9 38.7-16.7L38.7-16.7Q38.7-16.7 38.7-16.7 38.7-16.7 38.7-16.7L38.7-16.7ZM41.95-4.7L39.65-0.2 40.35 0.2 42.65-4.3Q42.65-4.35 42.67-4.35 42.7-4.35 42.7-4.4L42.7-4.4 44.45-10.35Q44.55-10.65 44.07-10.65 43.6-10.65 43.65-10.35L43.65-10.35 45.1-4.4Q45.1-4.4 45.12-4.38 45.15-4.35 45.15-4.35L45.15-4.35 47.3 0.15 48-0.15 45.85-4.65Q45.85-4.7 45.87-4.63 45.9-4.55 45.9-4.6L45.9-4.6 44.45-10.55Q44.4-10.85 44.07-10.85 43.75-10.85 43.65-10.55L43.65-10.55 41.9-4.6Q41.9-4.6 41.92-4.65 41.95-4.7 41.95-4.7L41.95-4.7ZM40 0.4L40 0.4 47.65 0.4Q47.8 0.4 47.92 0.3 48.05 0.2 48.05 0L48.05 0Q48.05-0.75 48.27-1.75 48.5-2.75 49.05-4.48 49.6-6.2 50.62-9.08 51.65-11.95 53.25-16.4L53.25-16.4Q54.95-21.15 56.1-24.2 57.25-27.25 58-29.08 58.75-30.9 59.3-31.95 59.85-33 60.35-33.75L60.35-33.75Q60.5-34 60.4-34.2 60.3-34.4 60.05-34.4L60.05-34.4 49.85-34.4Q49.65-34.4 49.52-34.23 49.4-34.05 49.5-33.85L49.5-33.85Q49.9-32.95 49.95-31.88 50-30.8 49.6-29.03 49.2-27.25 48.27-24.3 47.35-21.35 45.75-16.7L45.75-16.7 43.65-10.6 44.45-10.6 42.35-16.7Q40.75-21.35 39.8-24.3 38.85-27.25 38.47-29.03 38.1-30.8 38.17-31.88 38.25-32.95 38.6-33.85L38.6-33.85Q38.7-34.05 38.6-34.23 38.5-34.4 38.25-34.4L38.25-34.4 27.45-34.4Q27.2-34.4 27.1-34.2 27-34 27.15-33.75L27.15-33.75Q27.7-33 28.22-31.95 28.75-30.9 29.5-29.08 30.25-27.25 31.4-24.2 32.55-21.15 34.25-16.4L34.25-16.4Q35.85-11.95 36.85-9.08 37.85-6.2 38.42-4.45 39-2.7 39.25-1.7 39.5-0.7 39.6 0.05L39.6 0.05Q39.65 0.2 39.75 0.3 39.85 0.4 40 0.4ZM47.65-0.4L40-0.4 40.4-0.05Q40.3-0.8 40.05-1.83 39.8-2.85 39.22-4.63 38.65-6.4 37.65-9.3 36.65-12.2 35.05-16.7L35.05-16.7Q33.3-21.5 32.15-24.58 31-27.65 30.22-29.5 29.45-31.35 28.87-32.43 28.3-33.5 27.75-34.25L27.75-34.25 27.45-33.6 38.25-33.6 37.9-34.15Q37.5-33.2 37.37-32.13 37.25-31.05 37.62-29.23 38-27.4 38.92-24.35 39.85-21.3 41.55-16.4L41.55-16.4 43.65-10.3Q43.75-10.05 44.05-10.05 44.35-10.05 44.45-10.3L44.45-10.3 46.55-16.4Q48.2-21.3 49.15-24.35 50.1-27.4 50.45-29.23 50.8-31.05 50.7-32.13 50.6-33.2 50.2-34.15L50.2-34.15 49.85-33.6 60.05-33.6 59.75-34.25Q59.2-33.5 58.62-32.43 58.05-31.35 57.27-29.5 56.5-27.65 55.35-24.58 54.2-21.5 52.45-16.7L52.45-16.7Q50.85-12.2 49.82-9.28 48.8-6.35 48.25-4.58 47.7-2.8 47.47-1.78 47.25-0.75 47.25 0L47.25 0 47.65-0.4ZM80.7-30.15L80.7-30.15 80.8-30.95Q79-31.1 76.62-31.18 74.25-31.25 71.92-31.3 69.59-31.35 67.84-31.3L67.84-31.3Q67.64-31.3 67.55-31.18 67.45-31.05 67.45-30.9L67.45-30.9 67.45-3.1Q67.45-2.95 67.55-2.83 67.64-2.7 67.84-2.7L67.84-2.7Q69.65-2.65 71.95-2.68 74.25-2.7 76.57-2.8 78.9-2.9 80.7-3.05L80.7-3.05 80.59-3.85Q78.84-3.7 76.55-3.6 74.25-3.5 71.95-3.48 69.65-3.45 67.84-3.5L67.84-3.5Q67.7-3.5 67.97-3.23 68.25-2.95 68.25-3.1L68.25-3.1 68.25-30.9Q68.25-31.05 67.97-30.78 67.7-30.5 67.84-30.5L67.84-30.5Q69.59-30.55 71.92-30.5 74.25-30.45 76.59-30.38 78.95-30.3 80.7-30.15ZM67.84-17.1L79.4-17.1 79.4-17.9 67.84-17.9 67.84-17.1ZM68.09-2.8L71.84-5.95 71.34-6.55 67.59-3.4Q67.59-3.4 67.62-3.43 67.64-3.45 67.64-3.45L67.64-3.45 62.7-0.35 63.09 0.35 68.05-2.75Q68.09-2.75 68.09-2.78 68.09-2.8 68.09-2.8L68.09-2.8ZM68.05-31.25L63.09-34.35 62.7-33.65 67.64-30.55Q67.64-30.55 67.62-30.58 67.59-30.6 67.59-30.6L67.59-30.6 71.34-27.45 71.84-28.05 68.09-31.2Q68.09-31.2 68.09-31.23 68.09-31.25 68.05-31.25L68.05-31.25ZM81.05-30.3L84.15-33.75 83.55-34.25 80.45-30.8Q80.4-30.75 80.37-30.58 80.34-30.4 80.4-30.3L80.4-30.3 83.5-25.95 84.2-26.45 81.09-30.8Q81-30.9 80.97-30.55 80.95-30.2 81.05-30.3L81.05-30.3ZM80.95-3.2L85.05-8.05 84.45-8.55 80.34-3.7Q80.25-3.6 80.25-3.45 80.25-3.3 80.34-3.2L80.34-3.2 83.45 0.25 84.05-0.25 80.95-3.7Q80.84-3.8 80.87-3.45 80.9-3.1 80.95-3.2L80.95-3.2ZM79.7-17.25L82.8-21.35 82.2-21.85 79.09-17.75Q79-17.65 79-17.5 79-17.35 79.09-17.25L79.09-17.25 82.2-13.2 82.8-13.7 79.7-17.75Q79.65-17.85 79.65-17.5 79.65-17.15 79.7-17.25L79.7-17.25ZM68.09-17.2L71.65-20.2 71.15-20.8 67.59-17.8Q67.45-17.7 67.45-17.5 67.45-17.3 67.59-17.2L67.59-17.2 71.15-14.2 71.65-14.8 68.09-17.8Q67.95-17.9 67.95-17.5 67.95-17.1 68.09-17.2L68.09-17.2ZM62.9 0.4L62.9 0.4 83.75 0.4Q83.9 0.4 84 0.3 84.09 0.2 84.15 0.05L84.15 0.05 85.15-8.25Q85.2-8.5 84.97-8.65 84.75-8.8 84.5-8.6L84.5-8.6Q83.65-7.9 82.3-7.45 80.95-7 78.45-6.8 75.95-6.6 71.59-6.65L71.59-6.65 72-6.25Q71.95-7.75 71.9-9.78 71.84-11.8 71.8-14.5L71.8-14.5 71.4-14.1Q75.34-14.1 77.42-14 79.5-13.9 80.55-13.7 81.59-13.5 82.3-13.1L82.3-13.1Q82.55-13 82.72-13.13 82.9-13.25 82.9-13.45L82.9-13.45 82.9-21.6Q82.9-21.85 82.72-21.95 82.55-22.05 82.3-21.95L82.3-21.95Q81.59-21.55 80.55-21.33 79.5-21.1 77.4-21.03 75.3-20.95 71.4-20.9L71.4-20.9 71.8-20.5Q71.84-22.85 71.9-24.63 71.95-26.4 72-27.75L72-27.75 71.59-27.35Q75.84-27.45 78.17-27.23 80.5-27 81.67-26.65 82.84-26.3 83.65-25.85L83.65-25.85Q83.9-25.75 84.07-25.88 84.25-26 84.25-26.2L84.25-26.2 84.25-34Q84.25-34.15 84.12-34.27 84-34.4 83.84-34.4L83.84-34.4 62.9-34.4Q62.7-34.4 62.57-34.23 62.45-34.05 62.55-33.8L62.55-33.8Q62.95-33.1 63.2-32.1 63.45-31.1 63.57-29.35 63.7-27.6 63.77-24.75 63.84-21.9 63.84-17.45L63.84-17.45Q63.84-12.75 63.77-9.73 63.7-6.7 63.57-4.85 63.45-3 63.2-1.98 62.95-0.95 62.55-0.2L62.55-0.2Q62.45 0 62.57 0.2 62.7 0.4 62.9 0.4ZM83.75-0.4L62.9-0.4 63.25 0.2Q63.65-0.55 63.9-1.63 64.14-2.7 64.32-4.58 64.5-6.45 64.57-9.55 64.64-12.65 64.64-17.45L64.64-17.45Q64.64-22 64.57-24.93 64.5-27.85 64.32-29.63 64.14-31.4 63.9-32.43 63.65-33.45 63.25-34.2L63.25-34.2 62.9-33.6 83.84-33.6 83.45-34 83.45-26.2 84.05-26.55Q83.2-27 81.97-27.38 80.75-27.75 78.34-28 75.95-28.25 71.59-28.15L71.59-28.15Q71.45-28.15 71.32-28.05 71.2-27.95 71.2-27.75L71.2-27.75Q71.15-26.4 71.09-24.63 71.05-22.85 71-20.5L71-20.5Q71-20.35 71.12-20.23 71.25-20.1 71.4-20.1L71.4-20.1Q74.5-20.1 76.42-20.18 78.34-20.25 79.52-20.4 80.7-20.55 81.4-20.75 82.09-20.95 82.7-21.25L82.7-21.25 82.09-21.6 82.09-13.45 82.7-13.8Q82.09-14.1 81.4-14.3 80.7-14.5 79.52-14.63 78.34-14.75 76.4-14.83 74.45-14.9 71.4-14.9L71.4-14.9Q71.25-14.9 71.12-14.78 71-14.65 71-14.5L71-14.5Q71.05-11.8 71.09-9.78 71.15-7.75 71.2-6.25L71.2-6.25Q71.2-6.05 71.32-5.95 71.45-5.85 71.59-5.85L71.59-5.85Q76.15-5.8 78.72-6.03 81.3-6.25 82.7-6.75 84.09-7.25 85-8L85-8 84.34-8.35 83.34-0.05 83.75-0.4ZM94.79-2.75L99.49 0.35 99.89-0.35 95.19-3.45Q95.14-3.5 95.02-3.5 94.89-3.5 94.79-3.45L94.79-3.45 90.14-0.35 90.54 0.35 95.19-2.75Q95.29-2.85 94.99-2.85 94.69-2.85 94.79-2.75L94.79-2.75ZM115.09-31.25L110.44-34.35 110.04-33.65 114.69-30.55Q114.79-30.5 114.92-30.5 115.04-30.5 115.09-30.55L115.09-30.55 119.79-33.65 119.39-34.35 114.69-31.25Q114.59-31.2 114.89-31.2 115.19-31.2 115.09-31.25L115.09-31.25ZM95.19-31.75L90.54-34.35 90.14-33.65 94.79-31.05Q94.89-31 95.04-31.03 95.19-31.05 95.24-31.1L95.24-31.1 98.39-33.7 97.89-34.3 94.74-31.7Q94.64-31.65 94.97-31.68 95.29-31.7 95.19-31.75L95.19-31.75ZM114.69-2.5L118.89 0.35 119.29-0.35 115.09-3.2Q114.99-3.3 114.84-3.25 114.69-3.2 114.59-3.1L114.59-3.1 111.99-0.25 112.59 0.25 115.19-2.6Q115.29-2.7 114.92-2.65 114.54-2.6 114.69-2.5L114.69-2.5ZM94.59-31.4L94.59-3.1 95.39-3.1 95.39-31.4Q95.39-31.7 94.94-31.55 94.49-31.4 94.69-31.15L94.69-31.15Q95.99-29.55 97.59-27.43 99.19-25.3 101.44-21.9L101.44-21.9Q101.44-21.9 101.44-21.9 101.44-21.9 101.44-21.9L101.44-21.9 109.09-10.4Q109.09-10.4 109.09-10.4 109.09-10.4 109.09-10.4L109.09-10.4Q111.09-7.4 112.37-5.65 113.64-3.9 114.59-2.6L114.59-2.6Q114.74-2.4 115.02-2.48 115.29-2.55 115.29-2.85L115.29-2.85 115.29-30.9 114.49-30.9 114.49-2.85Q114.49-2.55 114.94-2.73 115.39-2.9 115.19-3.1L115.19-3.1Q114.24-4.4 113.02-6.15 111.79-7.9 109.79-10.8L109.79-10.8Q109.79-10.8 109.79-10.8 109.79-10.8 109.79-10.8L109.79-10.8 102.14-22.3Q102.14-22.3 102.14-22.3 102.14-22.3 102.14-22.3L102.14-22.3Q99.84-25.75 98.22-27.9 96.59-30.05 95.29-31.65L95.29-31.65Q95.09-31.9 94.84-31.8 94.59-31.7 94.59-31.4L94.59-31.4ZM115.29-2.95L111.99-14.05 111.19-13.85 114.49-2.75 115.29-2.95ZM98.74-20.8L95.39-31.5 94.59-31.3 97.94-20.6 98.74-20.8ZM119.49-0.1L119.49-0.1Q119.29-1.05 119.12-2.13 118.94-3.2 118.84-4.98 118.74-6.75 118.69-9.73 118.64-12.7 118.64-17.45L118.64-17.45Q118.64-21.9 118.72-24.75 118.79-27.6 118.92-29.35 119.04-31.1 119.32-32.1 119.59-33.1 119.94-33.8L119.94-33.8Q120.04-34.05 119.94-34.23 119.84-34.4 119.59-34.4L119.59-34.4 110.24-34.4Q110.04-34.4 109.92-34.23 109.79-34.05 109.89-33.8L109.89-33.8Q110.29-33.1 110.54-32.1 110.79-31.1 110.92-29.35 111.04-27.6 111.12-24.75 111.19-21.9 111.19-17.45L111.19-17.45 111.19-13.95 111.94-14.15 98.49-34.2Q98.34-34.4 98.14-34.4L98.14-34.4 90.34-34.4Q90.14-34.4 90.02-34.23 89.89-34.05 89.99-33.8L89.99-33.8Q90.39-33.1 90.64-32.1 90.89-31.1 91.02-29.35 91.14-27.6 91.22-24.75 91.29-21.9 91.29-17.45L91.29-17.45Q91.29-12.75 91.22-9.73 91.14-6.7 91.02-4.85 90.89-3 90.64-1.98 90.39-0.95 89.99-0.2L89.99-0.2Q89.89 0 90.02 0.2 90.14 0.4 90.34 0.4L90.34 0.4 99.69 0.4Q99.94 0.4 100.04 0.2 100.14 0 100.04-0.2L100.04-0.2Q99.69-0.95 99.42-1.98 99.14-3 99.02-4.85 98.89-6.7 98.82-9.73 98.74-12.75 98.74-17.45L98.74-17.45 98.74-20.7 97.99-20.5 111.94 0.2Q112.09 0.4 112.29 0.4L112.29 0.4 119.09 0.4Q119.29 0.4 119.42 0.25 119.54 0.1 119.49-0.1ZM118.69 0.1L118.69 0.1 119.09-0.4 112.29-0.4 112.64-0.2 98.69-20.9Q98.49-21.15 98.22-21.08 97.94-21 97.94-20.7L97.94-20.7 97.94-17.45Q97.94-12.65 98.02-9.55 98.09-6.45 98.27-4.58 98.44-2.7 98.72-1.63 98.99-0.55 99.34 0.2L99.34 0.2 99.69-0.4 90.34-0.4 90.69 0.2Q91.09-0.55 91.34-1.63 91.59-2.7 91.77-4.58 91.94-6.45 92.02-9.55 92.09-12.65 92.09-17.45L92.09-17.45Q92.09-22 92.02-24.93 91.94-27.85 91.77-29.63 91.59-31.4 91.34-32.43 91.09-33.45 90.69-34.2L90.69-34.2 90.34-33.6 98.14-33.6 97.79-33.8 111.24-13.75Q111.44-13.5 111.72-13.58 111.99-13.65 111.99-13.95L111.99-13.95 111.99-17.45Q111.99-22 111.92-24.93 111.84-27.85 111.67-29.63 111.49-31.4 111.24-32.43 110.99-33.45 110.59-34.2L110.59-34.2 110.24-33.6 119.59-33.6 119.24-34.2Q118.89-33.45 118.62-32.43 118.34-31.4 118.17-29.63 117.99-27.85 117.92-24.93 117.84-22 117.84-17.45L117.84-17.45Q117.84-12.65 117.89-9.65 117.94-6.65 118.04-4.85 118.14-3.05 118.32-1.95 118.49-0.85 118.69 0.1ZM136.14-30.4L145.54-30.4 145.54-31.2 136.14-31.2Q136.14-31.2 136.14-31.2 136.14-31.2 136.14-31.2L136.14-31.2 126.79-31.2 126.79-30.4 136.14-30.4Q136.14-30.4 136.14-30.4 136.14-30.4 136.14-30.4L136.14-30.4ZM136.54-3.1L136.54-30.8 135.74-30.8 135.74-3.1 136.54-3.1ZM135.94-2.75L140.89 0.35 141.29-0.35 136.34-3.45Q136.29-3.5 136.17-3.5 136.04-3.5 135.94-3.45L135.94-3.45 131.04-0.35 131.44 0.35 136.34-2.75Q136.44-2.85 136.14-2.85 135.84-2.85 135.94-2.75L135.94-2.75ZM145.84-30.5L148.94-33.7 148.34-34.3 145.24-31.1Q145.19-31 145.17-30.85 145.14-30.7 145.19-30.6L145.19-30.6 148.29-26 148.99-26.4 145.89-31Q145.84-31.15 145.79-30.8 145.74-30.45 145.84-30.5L145.84-30.5ZM126.44-31L123.34-26.4 124.04-26 127.14-30.6Q127.24-30.7 127.22-30.85 127.19-31 127.09-31.1L127.09-31.1 123.99-34.3 123.39-33.7 126.49-30.5Q126.59-30.45 126.57-30.8 126.54-31.15 126.44-31L126.44-31ZM135.89-31.1L132.19-27.95 132.69-27.35 136.39-30.5Q136.49-30.6 136.14-30.6 135.79-30.6 135.89-30.5L135.89-30.5 139.64-27.35 140.14-27.95 136.39-31.1Q136.29-31.2 136.14-31.2 135.99-31.2 135.89-31.1L135.89-31.1ZM131.24 0.4L131.24 0.4 141.09 0.4Q141.34 0.4 141.44 0.2 141.54 0 141.44-0.2L141.44-0.2Q141.09-0.95 140.81-1.98 140.54-3 140.42-4.85 140.29-6.7 140.22-9.73 140.14-12.75 140.14-17.45L140.14-17.45Q140.14-20.95 140.19-23.43 140.24-25.9 140.29-27.65L140.29-27.65 139.89-27.25Q142.49-27.2 144.12-27 145.74-26.8 146.74-26.53 147.74-26.25 148.44-25.85L148.44-25.85Q148.69-25.75 148.87-25.88 149.04-26 149.04-26.2L149.04-26.2 149.04-34Q149.04-34.15 148.92-34.27 148.79-34.4 148.64-34.4L148.64-34.4 123.69-34.4Q123.54-34.4 123.42-34.27 123.29-34.15 123.29-34L123.29-34 123.29-26.2Q123.29-26 123.49-25.88 123.69-25.75 123.89-25.85L123.89-25.85Q124.59-26.25 125.57-26.53 126.54-26.8 128.19-27 129.84-27.2 132.44-27.25L132.44-27.25 132.04-27.65Q132.14-25.9 132.17-23.43 132.19-20.95 132.19-17.45L132.19-17.45Q132.19-12.75 132.12-9.73 132.04-6.7 131.92-4.85 131.79-3 131.54-1.98 131.29-0.95 130.89-0.2L130.89-0.2Q130.79 0 130.92 0.2 131.04 0.4 131.24 0.4ZM141.09-0.4L131.24-0.4 131.59 0.2Q131.99-0.55 132.24-1.63 132.49-2.7 132.67-4.58 132.84-6.45 132.92-9.55 132.99-12.65 132.99-17.45L132.99-17.45Q132.99-20.95 132.97-23.43 132.94-25.9 132.84-27.65L132.84-27.65Q132.84-27.85 132.72-27.95 132.59-28.05 132.44-28.05L132.44-28.05Q129.74-28 128.04-27.78 126.34-27.55 125.29-27.25 124.24-26.95 123.49-26.55L123.49-26.55 124.09-26.2 124.09-34 123.69-33.6 148.64-33.6 148.24-34 148.24-26.2 148.84-26.55Q148.09-26.95 147.04-27.25 145.99-27.55 144.29-27.78 142.59-28 139.89-28.05L139.89-28.05Q139.74-28.05 139.62-27.95 139.49-27.85 139.49-27.65L139.49-27.65Q139.44-25.9 139.39-23.43 139.34-20.95 139.34-17.45L139.34-17.45Q139.34-12.65 139.42-9.55 139.49-6.45 139.67-4.58 139.84-2.7 140.12-1.63 140.39-0.55 140.74 0.2L140.74 0.2 141.09-0.4ZM158.29-3.1L158.29-30.9 157.49-30.9 157.49-3.1 158.29-3.1ZM157.69-2.75L162.59 0.35 162.99-0.35 158.09-3.45Q158.04-3.5 157.91-3.5 157.79-3.5 157.69-3.45L157.69-3.45 152.74-0.35 153.14 0.35 158.09-2.75Q158.19-2.85 157.89-2.85 157.59-2.85 157.69-2.75L157.69-2.75ZM158.09-31.25L153.14-34.35 152.74-33.65 157.69-30.55Q157.79-30.5 157.91-30.5 158.04-30.5 158.09-30.55L158.09-30.55 162.99-33.65 162.59-34.35 157.69-31.25Q157.59-31.2 157.89-31.2 158.19-31.2 158.09-31.25L158.09-31.25ZM152.94 0.4L152.94 0.4 162.79 0.4Q163.04 0.4 163.14 0.2 163.24 0 163.14-0.2L163.14-0.2Q162.79-0.95 162.51-1.98 162.24-3 162.11-4.85 161.99-6.7 161.91-9.73 161.84-12.75 161.84-17.45L161.84-17.45Q161.84-21.9 161.91-24.75 161.99-27.6 162.11-29.35 162.24-31.1 162.51-32.1 162.79-33.1 163.14-33.8L163.14-33.8Q163.24-34.05 163.14-34.23 163.04-34.4 162.79-34.4L162.79-34.4 152.94-34.4Q152.74-34.4 152.61-34.23 152.49-34.05 152.59-33.8L152.59-33.8Q152.99-33.1 153.24-32.1 153.49-31.1 153.61-29.35 153.74-27.6 153.81-24.75 153.89-21.9 153.89-17.45L153.89-17.45Q153.89-12.75 153.81-9.73 153.74-6.7 153.61-4.85 153.49-3 153.24-1.98 152.99-0.95 152.59-0.2L152.59-0.2Q152.49 0 152.61 0.2 152.74 0.4 152.94 0.4ZM162.79-0.4L152.94-0.4 153.29 0.2Q153.69-0.55 153.94-1.63 154.19-2.7 154.36-4.58 154.54-6.45 154.61-9.55 154.69-12.65 154.69-17.45L154.69-17.45Q154.69-22 154.61-24.93 154.54-27.85 154.36-29.63 154.19-31.4 153.94-32.43 153.69-33.45 153.29-34.2L153.29-34.2 152.94-33.6 162.79-33.6 162.44-34.2Q162.09-33.45 161.81-32.43 161.54-31.4 161.36-29.63 161.19-27.85 161.11-24.93 161.04-22 161.04-17.45L161.04-17.45Q161.04-12.65 161.11-9.55 161.19-6.45 161.36-4.58 161.54-2.7 161.81-1.63 162.09-0.55 162.44 0.2L162.44 0.2 162.79-0.4ZM173.89-16.1L185.44-16.1 185.44-16.9 173.89-16.9 173.89-16.1ZM174.09-31.25L169.14-34.35 168.74-33.65 173.69-30.55Q173.69-30.55 173.66-30.58 173.64-30.6 173.64-30.6L173.64-30.6 177.39-27.45 177.89-28.05 174.14-31.2Q174.14-31.2 174.14-31.23 174.14-31.25 174.09-31.25L174.09-31.25ZM187.09-30.3L190.19-33.75 189.59-34.25 186.49-30.8Q186.44-30.75 186.41-30.58 186.39-30.4 186.44-30.3L186.44-30.3 189.54-25.95 190.24-26.45 187.14-30.8Q187.04-30.9 187.01-30.55 186.99-30.2 187.09-30.3L187.09-30.3ZM185.74-16.25L188.84-20.35 188.24-20.85 185.14-16.75Q185.03-16.65 185.03-16.5 185.03-16.35 185.14-16.25L185.14-16.25 188.24-12.2 188.84-12.7 185.74-16.75Q185.69-16.85 185.69-16.5 185.69-16.15 185.74-16.25L185.74-16.25ZM174.14-16.2L177.69-19.2 177.19-19.8 173.64-16.8Q173.49-16.7 173.49-16.5 173.49-16.3 173.64-16.2L173.64-16.2 177.19-13.2 177.69-13.8 174.14-16.8Q173.99-16.9 173.99-16.5 173.99-16.1 174.14-16.2L174.14-16.2ZM186.74-30.15L186.74-30.15 186.84-30.95Q185.03-31.1 182.66-31.18 180.28-31.25 177.96-31.3 175.64-31.35 173.89-31.3L173.89-31.3Q173.69-31.3 173.59-31.18 173.49-31.05 173.49-30.9L173.49-30.9 173.49-3.1 174.28-3.1 174.28-30.9Q174.28-31.05 174.01-30.78 173.74-30.5 173.89-30.5L173.89-30.5Q175.64-30.55 177.96-30.5 180.28-30.45 182.64-30.38 184.99-30.3 186.74-30.15ZM173.69-2.75L178.59 0.35 178.99-0.35 174.09-3.45Q174.03-3.5 173.91-3.5 173.78-3.5 173.69-3.45L173.69-3.45 168.74-0.35 169.14 0.35 174.09-2.75Q174.19-2.85 173.89-2.85 173.59-2.85 173.69-2.75L173.69-2.75ZM168.94 0.4L168.94 0.4 178.78 0.4Q179.03 0.4 179.14 0.2 179.24 0 179.14-0.2L179.14-0.2Q178.69-1.05 178.41-2.4 178.14-3.75 178.01-6.33 177.89-8.9 177.84-13.5L177.84-13.5 177.44-13.1Q181.39-13.1 183.46-13 185.54-12.9 186.59-12.7 187.64-12.5 188.34-12.1L188.34-12.1Q188.59-12 188.76-12.13 188.94-12.25 188.94-12.45L188.94-12.45 188.94-20.6Q188.94-20.85 188.76-20.95 188.59-21.05 188.34-20.95L188.34-20.95Q187.64-20.55 186.59-20.33 185.54-20.1 183.44-20.03 181.34-19.95 177.44-19.9L177.44-19.9 177.84-19.5Q177.84-22.25 177.89-24.25 177.94-26.25 178.03-27.7L178.03-27.7 177.64-27.35Q181.89-27.45 184.21-27.23 186.54-27 187.71-26.65 188.89-26.3 189.69-25.85L189.69-25.85Q189.94-25.75 190.11-25.88 190.29-26 190.29-26.2L190.29-26.2 190.29-34Q190.29-34.15 190.16-34.27 190.04-34.4 189.89-34.4L189.89-34.4 168.94-34.4Q168.74-34.4 168.61-34.23 168.49-34.05 168.59-33.8L168.59-33.8Q168.99-33.1 169.24-32.1 169.49-31.1 169.61-29.35 169.74-27.6 169.81-24.75 169.89-21.9 169.89-17.45L169.89-17.45Q169.89-12.75 169.81-9.73 169.74-6.7 169.61-4.85 169.49-3 169.24-1.98 168.99-0.95 168.59-0.2L168.59-0.2Q168.49 0 168.61 0.2 168.74 0.4 168.94 0.4ZM178.78-0.4L168.94-0.4 169.28 0.2Q169.69-0.55 169.94-1.63 170.19-2.7 170.36-4.58 170.53-6.45 170.61-9.55 170.69-12.65 170.69-17.45L170.69-17.45Q170.69-22 170.61-24.93 170.53-27.85 170.36-29.63 170.19-31.4 169.94-32.43 169.69-33.45 169.28-34.2L169.28-34.2 168.94-33.6 189.89-33.6 189.49-34 189.49-26.2 190.09-26.55Q189.24-27 188.01-27.38 186.79-27.75 184.39-28 181.99-28.25 177.64-28.15L177.64-28.15Q177.49-28.15 177.36-28.05 177.24-27.95 177.24-27.8L177.24-27.8Q177.14-26.25 177.09-24.25 177.03-22.25 177.03-19.5L177.03-19.5Q177.03-19.35 177.16-19.23 177.28-19.1 177.44-19.1L177.44-19.1Q180.53-19.1 182.46-19.18 184.39-19.25 185.56-19.4 186.74-19.55 187.44-19.75 188.14-19.95 188.74-20.25L188.74-20.25 188.14-20.6 188.14-12.45 188.74-12.8Q188.14-13.1 187.44-13.3 186.74-13.5 185.56-13.63 184.39-13.75 182.44-13.83 180.49-13.9 177.44-13.9L177.44-13.9Q177.28-13.9 177.16-13.78 177.03-13.65 177.03-13.5L177.03-13.5Q177.09-9.95 177.19-7.6 177.28-5.25 177.44-3.78 177.59-2.3 177.84-1.4 178.09-0.5 178.44 0.2L178.44 0.2 178.78-0.4ZM198.73-31.05L198.73-31.05 198.03-30.75Q198.68-29.35 199.78-27.15 200.88-24.95 202.71-21.53 204.53-18.1 207.38-13L207.38-13Q207.48-12.8 207.73-12.8 207.98-12.8 208.08-13L208.08-13Q210.93-18.1 212.81-21.53 214.68-24.95 215.83-27.15 216.98-29.35 217.58-30.75L217.58-30.75 216.88-31.05Q216.28-29.65 215.13-27.48 213.98-25.3 212.11-21.9 210.23-18.5 207.38-13.4L207.38-13.4Q207.28-13.2 207.73-13.2 208.18-13.2 208.08-13.4L208.08-13.4Q205.28-18.5 203.43-21.88 201.58-25.25 200.48-27.45 199.38-29.65 198.73-31.05ZM208.13-13.2L208.13-19.85 207.33-19.85 207.33-13.2Q207.33-13.2 207.33-13.2 207.33-13.2 207.33-13.2L207.33-13.2 207.33-3.1 208.13-3.1 208.13-13.2Q208.13-13.2 208.13-13.2 208.13-13.2 208.13-13.2L208.13-13.2ZM207.53-2.75L212.48 0.35 212.88-0.35 207.93-3.45Q207.88-3.5 207.76-3.5 207.63-3.5 207.53-3.45L207.53-3.45 202.63-0.35 203.03 0.35 207.93-2.75Q208.03-2.85 207.73-2.85 207.43-2.85 207.53-2.75L207.53-2.75ZM198.53-31.25L192.03-34.35 191.73-33.65 198.23-30.55Q198.33-30.5 198.43-30.53 198.53-30.55 198.63-30.6L198.63-30.6 202.78-33.7 202.28-34.3 198.13-31.2Q198.08-31.15 198.36-31.18 198.63-31.2 198.53-31.25L198.53-31.25ZM217.48-31.2L213.48-34.3 212.98-33.7 216.98-30.6Q217.08-30.55 217.21-30.53 217.33-30.5 217.43-30.55L217.43-30.55 223.73-33.65 223.33-34.35 217.03-31.25Q216.98-31.2 217.28-31.18 217.58-31.15 217.48-31.2L217.48-31.2ZM207.68-13.6L204.13-13.3 204.23-12.5 207.78-12.8Q207.78-12.8 207.73-12.8 207.68-12.8 207.68-12.8L207.68-12.8 211.28-12.5 211.38-13.3 207.78-13.6Q207.73-13.6 207.73-13.6 207.73-13.6 207.68-13.6L207.68-13.6ZM223.53-34.4L223.53-34.4 213.23-34.4Q213.03-34.4 212.91-34.25 212.78-34.1 212.83-33.9L212.83-33.9Q213.08-33.1 213.01-32.15 212.93-31.2 212.38-29.75 211.83-28.3 210.63-25.98 209.43-23.65 207.38-20.05L207.38-20.05 208.08-20.05Q206.03-23.7 204.86-26.03 203.68-28.35 203.21-29.8 202.73-31.25 202.73-32.18 202.73-33.1 202.93-33.9L202.93-33.9Q202.98-34.1 202.86-34.25 202.73-34.4 202.53-34.4L202.53-34.4 191.88-34.4Q191.63-34.4 191.51-34.18 191.38-33.95 191.58-33.75L191.58-33.75Q192.18-33.1 192.81-32.23 193.43-31.35 194.28-29.95 195.13-28.55 196.38-26.33 197.63-24.1 199.43-20.78 201.23-17.45 203.83-12.7L203.83-12.7 203.78-12.9Q203.73-8.6 203.58-6.13 203.43-3.65 203.18-2.35 202.93-1.05 202.48-0.15L202.48-0.15Q202.38 0.05 202.51 0.23 202.63 0.4 202.83 0.4L202.83 0.4 212.68 0.4Q212.93 0.4 213.03 0.23 213.13 0.05 213.03-0.15L213.03-0.15Q212.63-1.05 212.36-2.33 212.08-3.6 211.93-6.08 211.78-8.55 211.73-12.9L211.73-12.9 211.68-12.7Q214.83-18.5 216.86-22.23 218.88-25.95 220.13-28.18 221.38-30.4 222.23-31.65 223.08-32.9 223.83-33.75L223.83-33.75Q224.03-33.95 223.91-34.18 223.78-34.4 223.53-34.4ZM213.23-33.6L223.53-33.6 223.23-34.25Q222.48-33.4 221.63-32.15 220.78-30.9 219.48-28.65 218.18-26.4 216.16-22.68 214.13-18.95 210.98-13.1L210.98-13.1Q210.93-13.05 210.93-13 210.93-12.95 210.93-12.9L210.93-12.9Q210.98-8.4 211.16-5.88 211.33-3.35 211.63-2.05 211.93-0.75 212.33 0.15L212.33 0.15 212.68-0.4 202.83-0.4 203.18 0.15Q203.63-0.75 203.91-2.08 204.18-3.4 204.36-5.93 204.53-8.45 204.58-12.9L204.58-12.9Q204.58-12.95 204.58-13 204.58-13.05 204.53-13.1L204.53-13.1Q201.93-17.9 200.11-21.25 198.28-24.6 197.03-26.83 195.78-29.05 194.91-30.45 194.03-31.85 193.41-32.73 192.78-33.6 192.18-34.25L192.18-34.25 191.88-33.6 202.53-33.6 202.13-34.1Q201.93-33.25 201.91-32.3 201.88-31.35 202.36-29.85 202.83-28.35 204.03-25.93 205.23-23.5 207.38-19.65L207.38-19.65Q207.48-19.45 207.73-19.45 207.98-19.45 208.08-19.65L208.08-19.65Q210.23-23.5 211.46-25.93 212.68-28.35 213.23-29.85 213.78-31.35 213.83-32.3 213.88-33.25 213.63-34.1L213.63-34.1 213.23-33.6Z" opacity="1" transform="matrix(1,0,0,1,0,0)" fill="#bf2051" class="wordmark-text-0" data-fill-palette-color="primary" id="text-0"></path>
                                  </svg>
                                </g>
                              </svg>
                            </g>
                            <g transform="matrix(1,0,0,1,0,76.80417086487444)">
                              <svg viewBox="0 0 375.744 31.04052347456241" height="31.04052347456241" width="375.744">
                                <g transform="matrix(1,0,0,1,0,0)">
                                  <svg width="375.744" viewBox="1.75 -39.650001525878906 611.22998046875 50.5" height="31.04052347456241" data-palette-color="#bf2051">
                                    <path d="M14.5-35.25Q17.15-35.25 19.18-34.38 21.2-33.5 23.1-31.7L23.1-31.7 20.05-28.05Q18.75-29.25 17.53-29.83 16.3-30.4 14.85-30.4L14.85-30.4Q11.85-30.4 10.15-27.4 8.45-24.4 8.45-17.35L8.45-17.35Q8.45-10.4 10.15-7.38 11.85-4.35 14.95-4.35L14.95-4.35Q16.5-4.35 17.65-4.98 18.8-5.6 20.35-6.9L20.35-6.9 23.4-3.4Q21.8-1.6 19.55-0.43 17.3 0.75 14.5 0.75L14.5 0.75Q8.65 0.75 5.2-3.8 1.75-8.35 1.75-17.35L1.75-17.35Q1.75-23.3 3.4-27.3 5.05-31.3 7.93-33.27 10.8-35.25 14.5-35.25L14.5-35.25ZM38.3-27.1Q39.45-27.1 40.35-26.75L40.35-26.75 39.35-20.85Q38.35-21.1 37.5-21.1L37.5-21.1Q35.6-21.1 34.5-19.45 33.4-17.8 32.8-14.55L32.8-14.55 32.8 0 26.65 0 26.65-26.45 32-26.45 32.45-21.85Q34.3-27.1 38.3-27.1L38.3-27.1ZM60.09-6.4Q60.09-5.1 60.45-4.48 60.8-3.85 61.59-3.45L61.59-3.45 60.34 0.65Q58.3 0.4 57.07-0.45 55.84-1.3 55.24-3.05L55.24-3.05Q52.95 0.75 48.8 0.75L48.8 0.75Q45.49 0.75 43.55-1.48 41.59-3.7 41.59-7.4L41.59-7.4Q41.59-11.7 44.27-13.95 46.95-16.2 52.05-16.2L52.05-16.2 54.09-16.2 54.09-18.05Q54.09-20.55 53.22-21.58 52.34-22.6 50.39-22.6L50.39-22.6Q48.05-22.6 44.55-21.3L44.55-21.3 43.14-25.3Q45.14-26.2 47.3-26.68 49.45-27.15 51.39-27.15L51.39-27.15Q60.09-27.15 60.09-18.35L60.09-18.35 60.09-6.4ZM50.45-3.7Q52.84-3.7 54.09-7L54.09-7 54.09-12.55 52.64-12.55Q50.09-12.55 48.92-11.4 47.74-10.25 47.74-7.85L47.74-7.85Q47.74-5.8 48.45-4.75 49.14-3.7 50.45-3.7L50.45-3.7ZM75.59-33.05Q74.19-33.05 73.52-32.3 72.84-31.55 72.84-30L72.84-30 72.84-26.45 77.89-26.45 77.19-22 72.84-22 72.84 0 66.69 0 66.69-22 63.39-22 63.39-26.45 66.69-26.45 66.69-29.8Q66.69-33.4 68.79-35.55 70.89-37.7 74.79-37.7L74.79-37.7Q77.84-37.7 80.69-36.2L80.69-36.2 78.99-32.2Q77.24-33.05 75.59-33.05L75.59-33.05ZM91.84-5L93.99-1.2Q91.54 0.75 88.24 0.75L88.24 0.75Q84.79 0.75 82.99-1.23 81.19-3.2 81.19-6.6L81.19-6.6 81.19-22 78.09-22 78.09-26.45 81.19-26.45 81.19-32.3 87.34-33.05 87.34-26.45 92.34-26.45 91.74-22 87.34-22 87.34-6.6Q87.34-4.2 89.39-4.2L89.39-4.2Q90.04-4.2 90.54-4.38 91.04-4.55 91.84-5L91.84-5ZM96.54-26.45L102.69-26.45 102.69 0 96.54 0 96.54-26.45ZM99.59-39.65Q101.24-39.65 102.26-38.6 103.29-37.55 103.29-35.9L103.29-35.9Q103.29-34.3 102.26-33.25 101.24-32.2 99.59-32.2L99.59-32.2Q97.94-32.2 96.91-33.25 95.89-34.3 95.89-35.9L95.89-35.9Q95.89-37.55 96.91-38.6 97.94-39.65 99.59-39.65L99.59-39.65ZM120.73-27.15Q123.58-27.15 125.23-25.1 126.88-23.05 126.88-19.6L126.88-19.6 126.88 0 120.73 0 120.73-18.9Q120.73-20.8 120.21-21.63 119.69-22.45 118.69-22.45L118.69-22.45Q116.58-22.45 114.53-18.5L114.53-18.5 114.53 0 108.38 0 108.38-26.45 113.73-26.45 114.19-23Q115.53-25.1 117.06-26.13 118.58-27.15 120.73-27.15L120.73-27.15ZM150.38-29.85L151.93-25.1Q150.88-24.6 149.41-24.4 147.93-24.2 145.73-24.2L145.73-24.2Q147.83-23.2 148.86-21.53 149.88-19.85 149.88-17.4L149.88-17.4Q149.88-13.4 147.43-10.95 144.98-8.5 140.78-8.5L140.78-8.5Q139.53-8.5 138.23-8.9L138.23-8.9Q137.33-8.15 137.33-6.85L137.33-6.85Q137.33-5.85 137.88-5.35 138.43-4.85 139.93-4.85L139.93-4.85 142.73-4.85Q146.73-4.85 149.08-2.78 151.43-0.7 151.43 2.5L151.43 2.5Q151.43 6.3 148.51 8.58 145.58 10.85 140.18 10.85L140.18 10.85Q134.48 10.85 132.21 8.75 129.93 6.65 129.93 2.6L129.93 2.6 135.38 2.6Q135.38 4.75 136.38 5.65 137.38 6.55 140.23 6.55L140.23 6.55Q142.98 6.55 144.13 5.6 145.28 4.65 145.28 2.9L145.28 2.9Q145.28 1.2 144.33 0.4 143.38-0.4 141.38-0.4L141.38-0.4 139.48-0.4Q135.68-0.4 133.93-1.75 132.18-3.1 132.18-5.45L132.18-5.45Q132.18-6.8 132.91-8.03 133.63-9.25 134.88-10.2L134.88-10.2Q132.83-11.5 131.88-13.3 130.93-15.1 130.93-17.7L130.93-17.7Q130.93-22.05 133.53-24.58 136.13-27.1 140.53-27.1L140.53-27.1Q143.78-27.1 145.91-27.8 148.03-28.5 150.38-29.85L150.38-29.85ZM140.53-23Q138.78-23 137.88-21.75 136.98-20.5 136.98-17.8L136.98-17.8Q136.98-15.25 137.88-13.88 138.78-12.5 140.48-12.5L140.48-12.5Q142.23-12.5 143.08-13.73 143.93-14.95 143.93-17.85L143.93-17.85Q143.93-20.55 143.11-21.78 142.28-23 140.53-23L140.53-23ZM186.03-34.55L186.03-9.7Q186.03-5.15 183.2-2.23 180.38 0.7 175.13 0.7L175.13 0.7Q169.78 0.7 166.98-2.18 164.18-5.05 164.18-9.7L164.18-9.7 164.18-34.55 170.53-34.55 170.53-10Q170.53-7.1 171.63-5.68 172.73-4.25 175.13-4.25L175.13-4.25Q177.48-4.25 178.58-5.68 179.68-7.1 179.68-10L179.68-10 179.68-34.55 186.03-34.55ZM203.72-27.15Q206.58-27.15 208.23-25.1 209.88-23.05 209.88-19.6L209.88-19.6 209.88 0 203.72 0 203.72-18.9Q203.72-20.8 203.2-21.63 202.68-22.45 201.68-22.45L201.68-22.45Q199.58-22.45 197.53-18.5L197.53-18.5 197.53 0 191.38 0 191.38-26.45 196.72-26.45 197.18-23Q198.53-25.1 200.05-26.13 201.58-27.15 203.72-27.15L203.72-27.15ZM225.12-33.05Q223.72-33.05 223.05-32.3 222.37-31.55 222.37-30L222.37-30 222.37-26.45 227.42-26.45 226.72-22 222.37-22 222.37 0 216.22 0 216.22-22 212.92-22 212.92-26.45 216.22-26.45 216.22-29.8Q216.22-33.4 218.32-35.55 220.42-37.7 224.32-37.7L224.32-37.7Q227.37-37.7 230.22-36.2L230.22-36.2 228.52-32.2Q226.77-33.05 225.12-33.05L225.12-33.05ZM239.62-27.15Q244.62-27.15 247.4-23.65 250.17-20.15 250.17-13.25L250.17-13.25Q250.17-6.65 247.37-2.95 244.57 0.75 239.62 0.75L239.62 0.75Q234.67 0.75 231.87-2.88 229.07-6.5 229.07-13.25L229.07-13.25Q229.07-19.95 231.87-23.55 234.67-27.15 239.62-27.15L239.62-27.15ZM239.62-22.5Q237.47-22.5 236.47-20.38 235.47-18.25 235.47-13.25L235.47-13.25Q235.47-8.2 236.47-6.08 237.47-3.95 239.62-3.95L239.62-3.95Q241.77-3.95 242.77-6.08 243.77-8.2 243.77-13.25L243.77-13.25Q243.77-18.3 242.77-20.4 241.77-22.5 239.62-22.5L239.62-22.5ZM266.37-27.1Q267.52-27.1 268.42-26.75L268.42-26.75 267.42-20.85Q266.42-21.1 265.57-21.1L265.57-21.1Q263.67-21.1 262.57-19.45 261.47-17.8 260.87-14.55L260.87-14.55 260.87 0 254.72 0 254.72-26.45 260.07-26.45 260.52-21.85Q262.37-27.1 266.37-27.1L266.37-27.1ZM289.22-29.85L290.77-25.1Q289.72-24.6 288.24-24.4 286.77-24.2 284.56-24.2L284.56-24.2Q286.67-23.2 287.69-21.53 288.72-19.85 288.72-17.4L288.72-17.4Q288.72-13.4 286.27-10.95 283.81-8.5 279.62-8.5L279.62-8.5Q278.37-8.5 277.06-8.9L277.06-8.9Q276.17-8.15 276.17-6.85L276.17-6.85Q276.17-5.85 276.72-5.35 277.27-4.85 278.77-4.85L278.77-4.85 281.56-4.85Q285.56-4.85 287.92-2.78 290.27-0.7 290.27 2.5L290.27 2.5Q290.27 6.3 287.34 8.58 284.42 10.85 279.02 10.85L279.02 10.85Q273.31 10.85 271.04 8.75 268.77 6.65 268.77 2.6L268.77 2.6 274.22 2.6Q274.22 4.75 275.22 5.65 276.22 6.55 279.06 6.55L279.06 6.55Q281.81 6.55 282.97 5.6 284.12 4.65 284.12 2.9L284.12 2.9Q284.12 1.2 283.17 0.4 282.22-0.4 280.22-0.4L280.22-0.4 278.31-0.4Q274.52-0.4 272.77-1.75 271.02-3.1 271.02-5.45L271.02-5.45Q271.02-6.8 271.74-8.03 272.47-9.25 273.72-10.2L273.72-10.2Q271.67-11.5 270.72-13.3 269.77-15.1 269.77-17.7L269.77-17.7Q269.77-22.05 272.37-24.58 274.97-27.1 279.37-27.1L279.37-27.1Q282.62-27.1 284.74-27.8 286.87-28.5 289.22-29.85L289.22-29.85ZM279.37-23Q277.62-23 276.72-21.75 275.81-20.5 275.81-17.8L275.81-17.8Q275.81-15.25 276.72-13.88 277.62-12.5 279.31-12.5L279.31-12.5Q281.06-12.5 281.92-13.73 282.77-14.95 282.77-17.85L282.77-17.85Q282.77-20.55 281.94-21.78 281.12-23 279.37-23L279.37-23ZM312.36-13.85Q312.36-13.4 312.21-11.3L312.21-11.3 298.56-11.3Q298.76-7.2 299.99-5.58 301.21-3.95 303.46-3.95L303.46-3.95Q305.01-3.95 306.26-4.48 307.51-5 308.96-6.15L308.96-6.15 311.51-2.65Q308.01 0.75 303.11 0.75L303.11 0.75Q297.91 0.75 295.14-2.85 292.36-6.45 292.36-13L292.36-13Q292.36-19.55 295.01-23.35 297.66-27.15 302.51-27.15L302.51-27.15Q307.16-27.15 309.76-23.78 312.36-20.4 312.36-13.85L312.36-13.85ZM306.36-15.3L306.36-15.65Q306.36-19.4 305.46-21.13 304.56-22.85 302.56-22.85L302.56-22.85Q300.71-22.85 299.74-21.18 298.76-19.5 298.56-15.3L298.56-15.3 306.36-15.3ZM327.81-5L329.96-1.2Q327.51 0.75 324.21 0.75L324.21 0.75Q320.76 0.75 318.96-1.23 317.16-3.2 317.16-6.6L317.16-6.6 317.16-22 314.06-22 314.06-26.45 317.16-26.45 317.16-32.3 323.31-33.05 323.31-26.45 328.31-26.45 327.71-22 323.31-22 323.31-6.6Q323.31-4.2 325.36-4.2L325.36-4.2Q326.01-4.2 326.51-4.38 327.01-4.55 327.81-5L327.81-5ZM343.66-5L345.81-1.2Q343.36 0.75 340.06 0.75L340.06 0.75Q336.61 0.75 334.81-1.23 333.01-3.2 333.01-6.6L333.01-6.6 333.01-22 329.91-22 329.91-26.45 333.01-26.45 333.01-32.3 339.16-33.05 339.16-26.45 344.16-26.45 343.56-22 339.16-22 339.16-6.6Q339.16-4.2 341.21-4.2L341.21-4.2Q341.86-4.2 342.36-4.38 342.86-4.55 343.66-5L343.66-5ZM365.26-6.4Q365.26-5.1 365.61-4.48 365.96-3.85 366.76-3.45L366.76-3.45 365.51 0.65Q363.46 0.4 362.23-0.45 361.01-1.3 360.41-3.05L360.41-3.05Q358.11 0.75 353.96 0.75L353.96 0.75Q350.66 0.75 348.71-1.48 346.76-3.7 346.76-7.4L346.76-7.4Q346.76-11.7 349.43-13.95 352.11-16.2 357.21-16.2L357.21-16.2 359.26-16.2 359.26-18.05Q359.26-20.55 358.38-21.58 357.51-22.6 355.56-22.6L355.56-22.6Q353.21-22.6 349.71-21.3L349.71-21.3 348.31-25.3Q350.31-26.2 352.46-26.68 354.61-27.15 356.56-27.15L356.56-27.15Q365.26-27.15 365.26-18.35L365.26-18.35 365.26-6.4ZM355.61-3.7Q358.01-3.7 359.26-7L359.26-7 359.26-12.55 357.81-12.55Q355.26-12.55 354.08-11.4 352.91-10.25 352.91-7.85L352.91-7.85Q352.91-5.8 353.61-4.75 354.31-3.7 355.61-3.7L355.61-3.7ZM383.2-27.15Q387.05-27.15 389.1-23.65 391.15-20.15 391.15-13.25L391.15-13.25Q391.15-6.75 388.85-3 386.55 0.75 382.55 0.75L382.55 0.75Q380.8 0.75 379.35-0.13 377.9-1 376.85-2.55L376.85-2.55 376.5 0 371.05 0 371.05-37 377.2-37.65 377.2-23.6Q378.25-25.3 379.78-26.23 381.3-27.15 383.2-27.15L383.2-27.15ZM380.9-3.9Q382.75-3.9 383.78-6 384.8-8.1 384.8-13.25L384.8-13.25Q384.8-18.6 383.88-20.58 382.95-22.55 381.25-22.55L381.25-22.55Q380.1-22.55 379.05-21.6 378-20.65 377.2-19.1L377.2-19.1 377.2-6.7Q377.85-5.45 378.83-4.67 379.8-3.9 380.9-3.9L380.9-3.9ZM401.35 0.75Q398.65 0.75 397.08-0.93 395.5-2.6 395.5-5.4L395.5-5.4 395.5-37.05 401.65-37.7 401.65-5.65Q401.65-5 401.95-4.6 402.25-4.2 402.85-4.2L402.85-4.2Q403.2-4.2 403.53-4.3 403.85-4.4 403.95-4.4L403.95-4.4 405.15-0.2Q403.45 0.75 401.35 0.75L401.35 0.75ZM427.05-13.85Q427.05-13.4 426.9-11.3L426.9-11.3 413.25-11.3Q413.45-7.2 414.67-5.58 415.9-3.95 418.15-3.95L418.15-3.95Q419.7-3.95 420.95-4.48 422.2-5 423.65-6.15L423.65-6.15 426.2-2.65Q422.7 0.75 417.8 0.75L417.8 0.75Q412.6 0.75 409.82-2.85 407.05-6.45 407.05-13L407.05-13Q407.05-19.55 409.7-23.35 412.35-27.15 417.2-27.15L417.2-27.15Q421.85-27.15 424.45-23.78 427.05-20.4 427.05-13.85L427.05-13.85ZM421.05-15.3L421.05-15.65Q421.05-19.4 420.15-21.13 419.25-22.85 417.25-22.85L417.25-22.85Q415.4-22.85 414.42-21.18 413.45-19.5 413.25-15.3L413.25-15.3 421.05-15.3ZM467.39-34.55L469.59 0 463.54 0 462.94-14.6Q462.64-22.6 462.64-26L462.64-26 462.69-28.6 457.94-3.8 451.94-3.8 446.99-28.65Q447.04-27.15 447.04-24.05L447.04-24.05Q447.04-18.8 446.84-14.4L446.84-14.4 446.29 0 440.34 0 442.54-34.55 450.54-34.55 455.04-10.2 459.24-34.55 467.39-34.55ZM483.79-27.15Q488.79-27.15 491.56-23.65 494.34-20.15 494.34-13.25L494.34-13.25Q494.34-6.65 491.54-2.95 488.74 0.75 483.79 0.75L483.79 0.75Q478.84 0.75 476.04-2.88 473.24-6.5 473.24-13.25L473.24-13.25Q473.24-19.95 476.04-23.55 478.84-27.15 483.79-27.15L483.79-27.15ZM483.79-22.5Q481.64-22.5 480.64-20.38 479.64-18.25 479.64-13.25L479.64-13.25Q479.64-8.2 480.64-6.08 481.64-3.95 483.79-3.95L483.79-3.95Q485.94-3.95 486.94-6.08 487.94-8.2 487.94-13.25L487.94-13.25Q487.94-18.3 486.94-20.4 485.94-22.5 483.79-22.5L483.79-22.5ZM522.54-27.15Q525.19-27.15 526.79-25.1 528.39-23.05 528.39-19.6L528.39-19.6 528.39 0 522.34 0 522.34-18.95Q522.34-20.85 521.84-21.68 521.34-22.5 520.39-22.5L520.39-22.5Q518.44-22.5 516.64-18.8L516.64-18.8 516.64 0 510.64 0 510.64-18.95Q510.64-22.5 508.74-22.5L508.74-22.5Q506.69-22.5 504.94-18.8L504.94-18.8 504.94 0 498.89 0 498.89-26.45 504.24-26.45 504.64-23.05Q507.24-27.15 510.89-27.15L510.89-27.15Q512.74-27.15 514.09-26 515.44-24.85 516.14-22.75L516.14-22.75Q518.79-27.15 522.54-27.15L522.54-27.15ZM552.74-13.85Q552.74-13.4 552.58-11.3L552.58-11.3 538.93-11.3Q539.13-7.2 540.36-5.58 541.58-3.95 543.83-3.95L543.83-3.95Q545.38-3.95 546.63-4.48 547.88-5 549.33-6.15L549.33-6.15 551.88-2.65Q548.38 0.75 543.49 0.75L543.49 0.75Q538.28 0.75 535.51-2.85 532.74-6.45 532.74-13L532.74-13Q532.74-19.55 535.38-23.35 538.03-27.15 542.88-27.15L542.88-27.15Q547.53-27.15 550.13-23.78 552.74-20.4 552.74-13.85L552.74-13.85ZM546.74-15.3L546.74-15.65Q546.74-19.4 545.83-21.13 544.93-22.85 542.93-22.85L542.93-22.85Q541.08-22.85 540.11-21.18 539.13-19.5 538.93-15.3L538.93-15.3 546.74-15.3ZM569.38-27.15Q572.23-27.15 573.88-25.1 575.53-23.05 575.53-19.6L575.53-19.6 575.53 0 569.38 0 569.38-18.9Q569.38-20.8 568.86-21.63 568.33-22.45 567.33-22.45L567.33-22.45Q565.23-22.45 563.18-18.5L563.18-18.5 563.18 0 557.03 0 557.03-26.45 562.38-26.45 562.83-23Q564.18-25.1 565.71-26.13 567.23-27.15 569.38-27.15L569.38-27.15ZM592.23-5L594.38-1.2Q591.93 0.75 588.63 0.75L588.63 0.75Q585.18 0.75 583.38-1.23 581.58-3.2 581.58-6.6L581.58-6.6 581.58-22 578.48-22 578.48-26.45 581.58-26.45 581.58-32.3 587.73-33.05 587.73-26.45 592.73-26.45 592.13-22 587.73-22 587.73-6.6Q587.73-4.2 589.78-4.2L589.78-4.2Q590.43-4.2 590.93-4.38 591.43-4.55 592.23-5L592.23-5ZM604.28-27.15Q608.98-27.15 612.23-24.05L612.23-24.05 609.88-20.7Q608.48-21.7 607.23-22.2 605.98-22.7 604.68-22.7L604.68-22.7Q603.23-22.7 602.4-21.93 601.58-21.15 601.58-19.8L601.58-19.8Q601.58-18.45 602.5-17.63 603.43-16.8 606.23-15.7L606.23-15.7Q609.68-14.35 611.33-12.5 612.98-10.65 612.98-7.55L612.98-7.55Q612.98-3.7 610.28-1.48 607.58 0.75 603.43 0.75L603.43 0.75Q600.73 0.75 598.45-0.23 596.18-1.2 594.48-2.95L594.48-2.95 597.48-6.25Q600.28-3.8 603.18-3.8L603.18-3.8Q604.83-3.8 605.78-4.67 606.73-5.55 606.73-7.1L606.73-7.1Q606.73-8.25 606.33-8.97 605.93-9.7 604.93-10.33 603.93-10.95 601.93-11.7L601.93-11.7Q598.48-13.05 597-14.85 595.53-16.65 595.53-19.45L595.53-19.45Q595.53-22.8 597.9-24.98 600.28-27.15 604.28-27.15L604.28-27.15Z" opacity="1" transform="matrix(1,0,0,1,0,0)" fill="#bf2051" class="slogan-text-1" data-fill-palette-color="secondary" id="text-1"></path>
                                  </svg>
                                </g>
                              </svg>
                            </g>
                          </svg>
                        </g>
                      </svg>
                    </g>
                    <g>
                      <svg viewBox="0 0 172.94355368871499 298.0827351542035" height="298.0827351542035" width="172.94355368871499">
                        <g>
                          <svg xmlns="http://www.w3.org/2000/svg" xmlns:xlink="http://www.w3.org/1999/xlink" version="1.1" x="0" y="0" viewBox="21.679107666015625 1 56.85826873779297 98" enable-background="new 0 0 100 100" xml:space="preserve" height="298.0827351542035" width="172.94355368871499" class="icon-icon-0" data-fill-palette-color="accent" id="icon-0">
                            <g fill="#bf2051" data-fill-palette-color="accent">
                              <path fill-rule="evenodd" clip-rule="evenodd" d="M30.545 28.822C29.38 36.039 30.875 43.672 37.045 47.863 30.758 19.81 45.756 8.664 59.646 1 43.466 24.046 76.542 24.644 78.423 51.13 80.028 73.71 64.507 91.317 46.639 99 46.845 76.175 24.089 73.067 21.801 54.397 20.905 47.094 25.062 33.766 30.545 28.822" fill="#bf2051" data-fill-palette-color="accent"></path>
                            </g>
                          </svg>
                        </g>
                      </svg>
                    </g>
                  </svg>
                </g>
                <defs></defs>
              </svg>
              <rect width="395.52" height="202.18000931810477" fill="none" stroke="none" visibility="hidden"></rect>
            </g>
          </svg>
        </g>
      </g>
    </g>
  </g>
  <rect width="280.2455567722371" height="54.144515456536396" x="244.5029270552561" y="158.42618135107816" rx="2.5" ry="2.5" fill="transparent" class="logo-element-hover-target"></rect>
  <rect width="266.8259560309973" height="33.05376621462261" x="244.50598045822102" y="210.52002611185983" rx="2.5" ry="2.5" fill="transparent" class="logo-element-hover-target"></rect>
  <rect width="129.30210790094338" height="214.17998494356462" x="117.23998694407004" y="93.91000094760783" rx="2.5" ry="2.5" fill="transparent" class="logo-element-hover-target"></rect>
</svg>
